<mxfile host="app.diagrams.net" agent="Mozilla/5.0 (Windows NT 10.0; Win64; x64; rv:141.0) Gecko/20100101 Firefox/141.0" version="28.1.0">
  <diagram name="Page-1" id="ddfqHNJZIYJh3kzay5kV">
    <mxGraphModel dx="1718" dy="446" grid="1" gridSize="10" guides="1" tooltips="1" connect="1" arrows="1" fold="1" page="1" pageScale="1" pageWidth="850" pageHeight="1100" math="0" shadow="0">
      <root>
        <mxCell id="0" />
        <mxCell id="1" parent="0" />
        <mxCell id="v6syZUUk10XVaUzBlse5-77" value="" style="rounded=0;whiteSpace=wrap;html=1;fillColor=none;fontColor=#ffffff;strokeColor=#6F0000;" vertex="1" parent="1">
          <mxGeometry x="40" y="280" width="520" height="40" as="geometry" />
        </mxCell>
        <mxCell id="v6syZUUk10XVaUzBlse5-16" style="edgeStyle=orthogonalEdgeStyle;rounded=1;orthogonalLoop=1;jettySize=auto;html=1;exitX=1;exitY=0.5;exitDx=0;exitDy=0;entryX=0;entryY=0.5;entryDx=0;entryDy=0;fillColor=#a20025;strokeColor=#6F0000;" edge="1" parent="1" source="v6syZUUk10XVaUzBlse5-1" target="v6syZUUk10XVaUzBlse5-15">
          <mxGeometry relative="1" as="geometry" />
        </mxCell>
        <mxCell id="v6syZUUk10XVaUzBlse5-1" value="" style="ellipse;whiteSpace=wrap;html=1;aspect=fixed;fillColor=#a20025;strokeColor=#6F0000;fontColor=#ffffff;rounded=1;" vertex="1" parent="1">
          <mxGeometry x="50" y="290" width="20" height="20" as="geometry" />
        </mxCell>
        <mxCell id="v6syZUUk10XVaUzBlse5-2" value="main" style="text;html=1;align=right;verticalAlign=middle;whiteSpace=wrap;rounded=1;fontFamily=Consolas;fontSource=https%3A%2F%2Ffonts.googleapis.com%2Fcss%3Ffamily%3DConsolas;" vertex="1" parent="1">
          <mxGeometry y="280" width="40" height="40" as="geometry" />
        </mxCell>
        <mxCell id="v6syZUUk10XVaUzBlse5-3" value="wip/stable" style="text;html=1;align=right;verticalAlign=middle;whiteSpace=wrap;rounded=1;fontFamily=Consolas;fontSource=https%3A%2F%2Ffonts.googleapis.com%2Fcss%3Ffamily%3DConsolas;" vertex="1" parent="1">
          <mxGeometry x="-120" y="240" width="160" height="40" as="geometry" />
        </mxCell>
        <mxCell id="v6syZUUk10XVaUzBlse5-4" value="wip/experimental" style="text;html=1;align=right;verticalAlign=middle;whiteSpace=wrap;rounded=1;fontFamily=Consolas;fontSource=https%3A%2F%2Ffonts.googleapis.com%2Fcss%3Ffamily%3DConsolas;" vertex="1" parent="1">
          <mxGeometry x="-120" y="200" width="160" height="40" as="geometry" />
        </mxCell>
        <mxCell id="v6syZUUk10XVaUzBlse5-5" value="feat/*" style="text;html=1;align=right;verticalAlign=middle;whiteSpace=wrap;rounded=1;fontFamily=Consolas;fontSource=https%3A%2F%2Ffonts.googleapis.com%2Fcss%3Ffamily%3DConsolas;" vertex="1" parent="1">
          <mxGeometry x="-20" y="160" width="60" height="40" as="geometry" />
        </mxCell>
        <mxCell id="v6syZUUk10XVaUzBlse5-6" value="bugfix/*" style="text;html=1;align=right;verticalAlign=middle;whiteSpace=wrap;rounded=1;fontFamily=Consolas;fontSource=https%3A%2F%2Ffonts.googleapis.com%2Fcss%3Ffamily%3DConsolas;" vertex="1" parent="1">
          <mxGeometry x="-20" y="120" width="60" height="40" as="geometry" />
        </mxCell>
        <mxCell id="v6syZUUk10XVaUzBlse5-25" style="edgeStyle=orthogonalEdgeStyle;rounded=1;orthogonalLoop=1;jettySize=auto;html=1;exitX=1;exitY=0.5;exitDx=0;exitDy=0;entryX=0;entryY=0.5;entryDx=0;entryDy=0;fillColor=#fff2cc;strokeColor=#d6b656;" edge="1" parent="1" source="v6syZUUk10XVaUzBlse5-7" target="v6syZUUk10XVaUzBlse5-22">
          <mxGeometry relative="1" as="geometry" />
        </mxCell>
        <mxCell id="v6syZUUk10XVaUzBlse5-7" value="" style="ellipse;whiteSpace=wrap;html=1;aspect=fixed;fillColor=#fff2cc;strokeColor=#d6b656;rounded=1;" vertex="1" parent="1">
          <mxGeometry x="50" y="210" width="20" height="20" as="geometry" />
        </mxCell>
        <mxCell id="v6syZUUk10XVaUzBlse5-35" style="edgeStyle=orthogonalEdgeStyle;rounded=1;orthogonalLoop=1;jettySize=auto;html=1;exitX=1;exitY=0.5;exitDx=0;exitDy=0;entryX=0;entryY=0.5;entryDx=0;entryDy=0;fillColor=#dae8fc;strokeColor=#6c8ebf;" edge="1" parent="1" source="v6syZUUk10XVaUzBlse5-8" target="v6syZUUk10XVaUzBlse5-15">
          <mxGeometry relative="1" as="geometry" />
        </mxCell>
        <mxCell id="v6syZUUk10XVaUzBlse5-8" value="" style="ellipse;whiteSpace=wrap;html=1;aspect=fixed;fillColor=#dae8fc;strokeColor=#6c8ebf;rounded=1;" vertex="1" parent="1">
          <mxGeometry x="50" y="250" width="20" height="20" as="geometry" />
        </mxCell>
        <mxCell id="v6syZUUk10XVaUzBlse5-41" style="edgeStyle=orthogonalEdgeStyle;rounded=1;orthogonalLoop=1;jettySize=auto;html=1;exitX=1;exitY=0.5;exitDx=0;exitDy=0;entryX=0;entryY=0.5;entryDx=0;entryDy=0;fillColor=#d5e8d4;strokeColor=#82b366;" edge="1" parent="1" source="v6syZUUk10XVaUzBlse5-9" target="v6syZUUk10XVaUzBlse5-36">
          <mxGeometry relative="1" as="geometry" />
        </mxCell>
        <mxCell id="v6syZUUk10XVaUzBlse5-9" value="" style="ellipse;whiteSpace=wrap;html=1;aspect=fixed;fillColor=#d5e8d4;strokeColor=#82b366;rounded=1;" vertex="1" parent="1">
          <mxGeometry x="50" y="170" width="20" height="20" as="geometry" />
        </mxCell>
        <mxCell id="v6syZUUk10XVaUzBlse5-46" style="edgeStyle=orthogonalEdgeStyle;rounded=1;orthogonalLoop=1;jettySize=auto;html=1;exitX=1;exitY=0.5;exitDx=0;exitDy=0;entryX=0;entryY=0.5;entryDx=0;entryDy=0;fillColor=#d5e8d4;strokeColor=#82b366;" edge="1" parent="1" source="v6syZUUk10XVaUzBlse5-10" target="v6syZUUk10XVaUzBlse5-37">
          <mxGeometry relative="1" as="geometry" />
        </mxCell>
        <mxCell id="v6syZUUk10XVaUzBlse5-10" value="" style="ellipse;whiteSpace=wrap;html=1;aspect=fixed;fillColor=#d5e8d4;strokeColor=#82b366;rounded=1;" vertex="1" parent="1">
          <mxGeometry x="50" y="130" width="20" height="20" as="geometry" />
        </mxCell>
        <mxCell id="v6syZUUk10XVaUzBlse5-11" value="hotfix/*" style="text;html=1;align=right;verticalAlign=middle;whiteSpace=wrap;rounded=1;fontFamily=Consolas;fontSource=https%3A%2F%2Ffonts.googleapis.com%2Fcss%3Ffamily%3DConsolas;" vertex="1" parent="1">
          <mxGeometry x="-120" y="320" width="160" height="40" as="geometry" />
        </mxCell>
        <mxCell id="v6syZUUk10XVaUzBlse5-90" style="edgeStyle=orthogonalEdgeStyle;rounded=1;orthogonalLoop=1;jettySize=auto;html=1;exitX=1;exitY=0.5;exitDx=0;exitDy=0;entryX=0;entryY=0.5;entryDx=0;entryDy=0;fillColor=#f8cecc;strokeColor=#b85450;" edge="1" parent="1" source="v6syZUUk10XVaUzBlse5-13" target="v6syZUUk10XVaUzBlse5-65">
          <mxGeometry relative="1" as="geometry" />
        </mxCell>
        <mxCell id="v6syZUUk10XVaUzBlse5-13" value="" style="ellipse;whiteSpace=wrap;html=1;aspect=fixed;fillColor=#f8cecc;strokeColor=#b85450;rounded=1;" vertex="1" parent="1">
          <mxGeometry x="90" y="330" width="20" height="20" as="geometry" />
        </mxCell>
        <mxCell id="v6syZUUk10XVaUzBlse5-32" style="edgeStyle=orthogonalEdgeStyle;rounded=1;orthogonalLoop=1;jettySize=auto;html=1;exitX=1;exitY=0.5;exitDx=0;exitDy=0;entryX=0;entryY=0.5;entryDx=0;entryDy=0;fillColor=#a20025;strokeColor=#6F0000;" edge="1" parent="1" source="v6syZUUk10XVaUzBlse5-15" target="v6syZUUk10XVaUzBlse5-31">
          <mxGeometry relative="1" as="geometry" />
        </mxCell>
        <mxCell id="v6syZUUk10XVaUzBlse5-88" style="edgeStyle=orthogonalEdgeStyle;rounded=1;orthogonalLoop=1;jettySize=auto;html=1;exitX=1;exitY=0.5;exitDx=0;exitDy=0;entryX=0;entryY=0.5;entryDx=0;entryDy=0;fillColor=#a20025;strokeColor=#6F0000;" edge="1" parent="1" source="v6syZUUk10XVaUzBlse5-15" target="v6syZUUk10XVaUzBlse5-85">
          <mxGeometry relative="1" as="geometry" />
        </mxCell>
        <mxCell id="v6syZUUk10XVaUzBlse5-15" value="" style="ellipse;whiteSpace=wrap;html=1;aspect=fixed;fillColor=#a20025;strokeColor=#6F0000;fontColor=#ffffff;rounded=1;" vertex="1" parent="1">
          <mxGeometry x="110" y="290" width="20" height="20" as="geometry" />
        </mxCell>
        <mxCell id="v6syZUUk10XVaUzBlse5-92" style="edgeStyle=orthogonalEdgeStyle;rounded=1;orthogonalLoop=1;jettySize=auto;html=1;exitX=1;exitY=0.5;exitDx=0;exitDy=0;entryX=0;entryY=0.5;entryDx=0;entryDy=0;fillColor=#a20025;strokeColor=#6F0000;" edge="1" parent="1" source="v6syZUUk10XVaUzBlse5-18" target="v6syZUUk10XVaUzBlse5-86">
          <mxGeometry relative="1" as="geometry" />
        </mxCell>
        <mxCell id="v6syZUUk10XVaUzBlse5-18" value="" style="ellipse;whiteSpace=wrap;html=1;aspect=fixed;fillColor=#a20025;strokeColor=#6F0000;fontColor=#ffffff;rounded=1;" vertex="1" parent="1">
          <mxGeometry x="470" y="290" width="20" height="20" as="geometry" />
        </mxCell>
        <mxCell id="v6syZUUk10XVaUzBlse5-19" value="" style="ellipse;whiteSpace=wrap;html=1;aspect=fixed;fillColor=#dae8fc;strokeColor=#6c8ebf;rounded=1;" vertex="1" parent="1">
          <mxGeometry x="420" y="250" width="20" height="20" as="geometry" />
        </mxCell>
        <mxCell id="v6syZUUk10XVaUzBlse5-21" style="edgeStyle=orthogonalEdgeStyle;rounded=1;orthogonalLoop=1;jettySize=auto;html=1;exitX=1;exitY=0.5;exitDx=0;exitDy=0;entryX=0;entryY=0.5;entryDx=0;entryDy=0;curved=1;fillColor=#dae8fc;strokeColor=#6c8ebf;" edge="1" parent="1" source="v6syZUUk10XVaUzBlse5-8" target="v6syZUUk10XVaUzBlse5-19">
          <mxGeometry relative="1" as="geometry">
            <mxPoint x="180" y="290" as="sourcePoint" />
            <mxPoint x="240" y="330" as="targetPoint" />
          </mxGeometry>
        </mxCell>
        <mxCell id="v6syZUUk10XVaUzBlse5-24" style="edgeStyle=orthogonalEdgeStyle;rounded=1;orthogonalLoop=1;jettySize=auto;html=1;exitX=1;exitY=0.5;exitDx=0;exitDy=0;entryX=0;entryY=0.5;entryDx=0;entryDy=0;fillColor=#fff2cc;strokeColor=#d6b656;" edge="1" parent="1" source="v6syZUUk10XVaUzBlse5-53" target="v6syZUUk10XVaUzBlse5-19">
          <mxGeometry relative="1" as="geometry">
            <Array as="points">
              <mxPoint x="400" y="220" />
              <mxPoint x="400" y="260" />
            </Array>
          </mxGeometry>
        </mxCell>
        <mxCell id="v6syZUUk10XVaUzBlse5-43" style="edgeStyle=orthogonalEdgeStyle;rounded=1;orthogonalLoop=1;jettySize=auto;html=1;exitX=1;exitY=0.5;exitDx=0;exitDy=0;entryX=0;entryY=0.5;entryDx=0;entryDy=0;fillColor=#fff2cc;strokeColor=#d6b656;" edge="1" parent="1" source="v6syZUUk10XVaUzBlse5-22" target="v6syZUUk10XVaUzBlse5-42">
          <mxGeometry relative="1" as="geometry" />
        </mxCell>
        <mxCell id="v6syZUUk10XVaUzBlse5-45" style="edgeStyle=orthogonalEdgeStyle;rounded=1;orthogonalLoop=1;jettySize=auto;html=1;exitX=1;exitY=0.5;exitDx=0;exitDy=0;entryX=0;entryY=0.5;entryDx=0;entryDy=0;fillColor=#fff2cc;strokeColor=#d6b656;" edge="1" parent="1" source="v6syZUUk10XVaUzBlse5-22" target="v6syZUUk10XVaUzBlse5-37">
          <mxGeometry relative="1" as="geometry" />
        </mxCell>
        <mxCell id="v6syZUUk10XVaUzBlse5-22" value="" style="ellipse;whiteSpace=wrap;html=1;aspect=fixed;fillColor=#fff2cc;strokeColor=#d6b656;rounded=1;" vertex="1" parent="1">
          <mxGeometry x="150" y="210" width="20" height="20" as="geometry" />
        </mxCell>
        <mxCell id="v6syZUUk10XVaUzBlse5-72" style="edgeStyle=orthogonalEdgeStyle;rounded=1;orthogonalLoop=1;jettySize=auto;html=1;exitX=1;exitY=0.5;exitDx=0;exitDy=0;entryX=0;entryY=0.5;entryDx=0;entryDy=0;fillColor=#a20025;strokeColor=#6F0000;" edge="1" parent="1" source="v6syZUUk10XVaUzBlse5-31" target="v6syZUUk10XVaUzBlse5-69">
          <mxGeometry relative="1" as="geometry" />
        </mxCell>
        <mxCell id="v6syZUUk10XVaUzBlse5-31" value="" style="ellipse;whiteSpace=wrap;html=1;aspect=fixed;fillColor=#a20025;strokeColor=#6F0000;fontColor=#ffffff;rounded=1;" vertex="1" parent="1">
          <mxGeometry x="170" y="290" width="20" height="20" as="geometry" />
        </mxCell>
        <mxCell id="v6syZUUk10XVaUzBlse5-38" style="edgeStyle=orthogonalEdgeStyle;rounded=1;orthogonalLoop=1;jettySize=auto;html=1;exitX=1;exitY=0.5;exitDx=0;exitDy=0;entryX=0;entryY=0.5;entryDx=0;entryDy=0;fillColor=#d5e8d4;strokeColor=#82b366;" edge="1" parent="1" source="v6syZUUk10XVaUzBlse5-36" target="v6syZUUk10XVaUzBlse5-22">
          <mxGeometry relative="1" as="geometry" />
        </mxCell>
        <mxCell id="v6syZUUk10XVaUzBlse5-36" value="" style="ellipse;whiteSpace=wrap;html=1;aspect=fixed;fillColor=#d5e8d4;strokeColor=#82b366;rounded=1;" vertex="1" parent="1">
          <mxGeometry x="90" y="170" width="20" height="20" as="geometry" />
        </mxCell>
        <mxCell id="v6syZUUk10XVaUzBlse5-39" style="edgeStyle=orthogonalEdgeStyle;rounded=1;orthogonalLoop=1;jettySize=auto;html=1;exitX=1;exitY=0.5;exitDx=0;exitDy=0;entryX=0;entryY=0.5;entryDx=0;entryDy=0;fillColor=#d5e8d4;strokeColor=#82b366;" edge="1" parent="1" source="v6syZUUk10XVaUzBlse5-37" target="v6syZUUk10XVaUzBlse5-42">
          <mxGeometry relative="1" as="geometry">
            <Array as="points">
              <mxPoint x="240" y="140" />
              <mxPoint x="240" y="220" />
            </Array>
          </mxGeometry>
        </mxCell>
        <mxCell id="v6syZUUk10XVaUzBlse5-37" value="" style="ellipse;whiteSpace=wrap;html=1;aspect=fixed;fillColor=#d5e8d4;strokeColor=#82b366;rounded=1;" vertex="1" parent="1">
          <mxGeometry x="210" y="130" width="20" height="20" as="geometry" />
        </mxCell>
        <mxCell id="v6syZUUk10XVaUzBlse5-64" style="edgeStyle=orthogonalEdgeStyle;rounded=1;orthogonalLoop=1;jettySize=auto;html=1;exitX=1;exitY=0.5;exitDx=0;exitDy=0;entryX=0;entryY=0.5;entryDx=0;entryDy=0;fillColor=#fff2cc;strokeColor=#d6b656;" edge="1" parent="1" source="v6syZUUk10XVaUzBlse5-42" target="v6syZUUk10XVaUzBlse5-53">
          <mxGeometry relative="1" as="geometry" />
        </mxCell>
        <mxCell id="v6syZUUk10XVaUzBlse5-42" value="" style="ellipse;whiteSpace=wrap;html=1;aspect=fixed;fillColor=#fff2cc;strokeColor=#d6b656;rounded=1;" vertex="1" parent="1">
          <mxGeometry x="260" y="210" width="20" height="20" as="geometry" />
        </mxCell>
        <mxCell id="v6syZUUk10XVaUzBlse5-33" style="edgeStyle=orthogonalEdgeStyle;rounded=1;orthogonalLoop=1;jettySize=auto;html=1;exitX=1;exitY=0.5;exitDx=0;exitDy=0;fillColor=#f8cecc;strokeColor=#b85450;entryX=0;entryY=0.5;entryDx=0;entryDy=0;" edge="1" parent="1" source="v6syZUUk10XVaUzBlse5-13" target="v6syZUUk10XVaUzBlse5-31">
          <mxGeometry relative="1" as="geometry">
            <mxPoint x="190" y="340" as="targetPoint" />
            <Array as="points">
              <mxPoint x="140" y="340" />
              <mxPoint x="140" y="300" />
            </Array>
          </mxGeometry>
        </mxCell>
        <mxCell id="v6syZUUk10XVaUzBlse5-47" value="docs/*" style="text;html=1;align=right;verticalAlign=middle;whiteSpace=wrap;rounded=1;fontFamily=Consolas;fontSource=https%3A%2F%2Ffonts.googleapis.com%2Fcss%3Ffamily%3DConsolas;" vertex="1" parent="1">
          <mxGeometry x="-20" y="80" width="60" height="40" as="geometry" />
        </mxCell>
        <mxCell id="v6syZUUk10XVaUzBlse5-50" style="edgeStyle=orthogonalEdgeStyle;rounded=1;orthogonalLoop=1;jettySize=auto;html=1;exitX=1;exitY=0.5;exitDx=0;exitDy=0;entryX=0;entryY=0.5;entryDx=0;entryDy=0;fillColor=#d5e8d4;strokeColor=#82b366;" edge="1" parent="1" source="v6syZUUk10XVaUzBlse5-48" target="v6syZUUk10XVaUzBlse5-49">
          <mxGeometry relative="1" as="geometry" />
        </mxCell>
        <mxCell id="v6syZUUk10XVaUzBlse5-48" value="" style="ellipse;whiteSpace=wrap;html=1;aspect=fixed;fillColor=#d5e8d4;strokeColor=#82b366;rounded=1;" vertex="1" parent="1">
          <mxGeometry x="50" y="90" width="20" height="20" as="geometry" />
        </mxCell>
        <mxCell id="v6syZUUk10XVaUzBlse5-52" style="edgeStyle=orthogonalEdgeStyle;rounded=1;orthogonalLoop=1;jettySize=auto;html=1;exitX=1;exitY=0.5;exitDx=0;exitDy=0;entryX=0;entryY=0.5;entryDx=0;entryDy=0;fillColor=#d5e8d4;strokeColor=#82b366;" edge="1" parent="1" source="v6syZUUk10XVaUzBlse5-49" target="v6syZUUk10XVaUzBlse5-51">
          <mxGeometry relative="1" as="geometry" />
        </mxCell>
        <mxCell id="v6syZUUk10XVaUzBlse5-49" value="" style="ellipse;whiteSpace=wrap;html=1;aspect=fixed;fillColor=#d5e8d4;strokeColor=#82b366;rounded=1;" vertex="1" parent="1">
          <mxGeometry x="130" y="90" width="20" height="20" as="geometry" />
        </mxCell>
        <mxCell id="v6syZUUk10XVaUzBlse5-51" value="" style="ellipse;whiteSpace=wrap;html=1;aspect=fixed;fillColor=#d5e8d4;strokeColor=#82b366;rounded=1;" vertex="1" parent="1">
          <mxGeometry x="310" y="90" width="20" height="20" as="geometry" />
        </mxCell>
        <mxCell id="v6syZUUk10XVaUzBlse5-53" value="" style="ellipse;whiteSpace=wrap;html=1;aspect=fixed;fillColor=#fff2cc;strokeColor=#d6b656;rounded=1;" vertex="1" parent="1">
          <mxGeometry x="370" y="210" width="20" height="20" as="geometry" />
        </mxCell>
        <mxCell id="v6syZUUk10XVaUzBlse5-60" value="" style="shape=curlyBracket;whiteSpace=wrap;html=1;rounded=1;labelPosition=left;verticalLabelPosition=middle;align=right;verticalAlign=middle;" vertex="1" parent="1">
          <mxGeometry x="-60" y="90" width="20" height="100" as="geometry" />
        </mxCell>
        <mxCell id="v6syZUUk10XVaUzBlse5-61" value="can be integrated into &lt;span style=&quot;color: rgb(153, 153, 0);&quot;&gt;&lt;font data-font-src=&quot;https://fonts.googleapis.com/css?family=Consolas&quot; face=&quot;Consolas&quot;&gt;wip/experimental&lt;/font&gt;&lt;/span&gt; in any order" style="text;html=1;align=right;verticalAlign=middle;whiteSpace=wrap;rounded=0;fontStyle=2" vertex="1" parent="1">
          <mxGeometry x="-310" y="120" width="230" height="40" as="geometry" />
        </mxCell>
        <mxCell id="v6syZUUk10XVaUzBlse5-63" style="edgeStyle=orthogonalEdgeStyle;rounded=1;orthogonalLoop=1;jettySize=auto;html=1;exitX=1;exitY=0.5;exitDx=0;exitDy=0;entryX=0;entryY=0.5;entryDx=0;entryDy=0;fillColor=#fff2cc;strokeColor=#d6b656;" edge="1" parent="1" source="v6syZUUk10XVaUzBlse5-42" target="v6syZUUk10XVaUzBlse5-51">
          <mxGeometry relative="1" as="geometry">
            <Array as="points">
              <mxPoint x="290" y="220" />
              <mxPoint x="290" y="100" />
            </Array>
          </mxGeometry>
        </mxCell>
        <mxCell id="v6syZUUk10XVaUzBlse5-62" style="edgeStyle=orthogonalEdgeStyle;rounded=1;orthogonalLoop=1;jettySize=auto;html=1;exitX=1;exitY=0.5;exitDx=0;exitDy=0;entryX=0;entryY=0.5;entryDx=0;entryDy=0;fillColor=#d5e8d4;strokeColor=#82b366;" edge="1" parent="1" source="v6syZUUk10XVaUzBlse5-51" target="v6syZUUk10XVaUzBlse5-53">
          <mxGeometry relative="1" as="geometry" />
        </mxCell>
        <mxCell id="v6syZUUk10XVaUzBlse5-68" style="edgeStyle=orthogonalEdgeStyle;rounded=1;orthogonalLoop=1;jettySize=auto;html=1;exitX=1;exitY=0.5;exitDx=0;exitDy=0;entryX=0;entryY=0.5;entryDx=0;entryDy=0;fillColor=#f8cecc;strokeColor=#b85450;" edge="1" parent="1" source="v6syZUUk10XVaUzBlse5-65" target="v6syZUUk10XVaUzBlse5-66">
          <mxGeometry relative="1" as="geometry" />
        </mxCell>
        <mxCell id="v6syZUUk10XVaUzBlse5-65" value="" style="ellipse;whiteSpace=wrap;html=1;aspect=fixed;fillColor=#f8cecc;strokeColor=#b85450;rounded=1;" vertex="1" parent="1">
          <mxGeometry x="220" y="330" width="20" height="20" as="geometry" />
        </mxCell>
        <mxCell id="v6syZUUk10XVaUzBlse5-66" value="" style="ellipse;whiteSpace=wrap;html=1;aspect=fixed;fillColor=#f8cecc;strokeColor=#b85450;rounded=1;" vertex="1" parent="1">
          <mxGeometry x="330" y="330" width="20" height="20" as="geometry" />
        </mxCell>
        <mxCell id="v6syZUUk10XVaUzBlse5-74" style="edgeStyle=orthogonalEdgeStyle;rounded=1;orthogonalLoop=1;jettySize=auto;html=1;exitX=1;exitY=0.5;exitDx=0;exitDy=0;entryX=0;entryY=0.5;entryDx=0;entryDy=0;fillColor=#f8cecc;strokeColor=#b85450;" edge="1" parent="1" source="v6syZUUk10XVaUzBlse5-69" target="v6syZUUk10XVaUzBlse5-73">
          <mxGeometry relative="1" as="geometry">
            <Array as="points">
              <mxPoint x="410" y="300" />
              <mxPoint x="410" y="340" />
            </Array>
          </mxGeometry>
        </mxCell>
        <mxCell id="v6syZUUk10XVaUzBlse5-76" style="edgeStyle=orthogonalEdgeStyle;rounded=1;orthogonalLoop=1;jettySize=auto;html=1;exitX=1;exitY=0.5;exitDx=0;exitDy=0;entryX=0;entryY=0.5;entryDx=0;entryDy=0;fillColor=#a20025;strokeColor=#6F0000;" edge="1" parent="1" source="v6syZUUk10XVaUzBlse5-69" target="v6syZUUk10XVaUzBlse5-18">
          <mxGeometry relative="1" as="geometry" />
        </mxCell>
        <mxCell id="v6syZUUk10XVaUzBlse5-69" value="" style="ellipse;whiteSpace=wrap;html=1;aspect=fixed;fillColor=#a20025;strokeColor=#6F0000;fontColor=#ffffff;rounded=1;" vertex="1" parent="1">
          <mxGeometry x="380" y="290" width="20" height="20" as="geometry" />
        </mxCell>
        <mxCell id="v6syZUUk10XVaUzBlse5-71" style="edgeStyle=orthogonalEdgeStyle;rounded=1;orthogonalLoop=1;jettySize=auto;html=1;exitX=1;exitY=0.5;exitDx=0;exitDy=0;entryX=0;entryY=0.5;entryDx=0;entryDy=0;fillColor=#f8cecc;strokeColor=#b85450;" edge="1" parent="1" source="v6syZUUk10XVaUzBlse5-66" target="v6syZUUk10XVaUzBlse5-69">
          <mxGeometry relative="1" as="geometry">
            <Array as="points">
              <mxPoint x="360" y="340" />
              <mxPoint x="360" y="300" />
            </Array>
          </mxGeometry>
        </mxCell>
        <mxCell id="v6syZUUk10XVaUzBlse5-73" value="" style="ellipse;whiteSpace=wrap;html=1;aspect=fixed;fillColor=#f8cecc;strokeColor=#b85450;rounded=1;" vertex="1" parent="1">
          <mxGeometry x="430" y="330" width="20" height="20" as="geometry" />
        </mxCell>
        <mxCell id="v6syZUUk10XVaUzBlse5-28" style="edgeStyle=orthogonalEdgeStyle;rounded=1;orthogonalLoop=1;jettySize=auto;html=1;exitX=1;exitY=0.5;exitDx=0;exitDy=0;entryX=0;entryY=0.5;entryDx=0;entryDy=0;fillColor=#dae8fc;strokeColor=#6c8ebf;" edge="1" parent="1" source="v6syZUUk10XVaUzBlse5-19" target="v6syZUUk10XVaUzBlse5-18">
          <mxGeometry relative="1" as="geometry">
            <Array as="points">
              <mxPoint x="450" y="260" />
              <mxPoint x="450" y="300" />
            </Array>
          </mxGeometry>
        </mxCell>
        <mxCell id="v6syZUUk10XVaUzBlse5-78" value="" style="rounded=0;whiteSpace=wrap;html=1;fillColor=none;strokeColor=#6c8ebf;" vertex="1" parent="1">
          <mxGeometry x="40" y="240" width="520" height="40" as="geometry" />
        </mxCell>
        <mxCell id="v6syZUUk10XVaUzBlse5-79" value="for time-critical fixes" style="text;html=1;align=right;verticalAlign=middle;whiteSpace=wrap;rounded=0;fontStyle=2" vertex="1" parent="1">
          <mxGeometry x="-310" y="320" width="230" height="40" as="geometry" />
        </mxCell>
        <mxCell id="v6syZUUk10XVaUzBlse5-80" value="for time-critical fixes" style="text;html=1;align=right;verticalAlign=middle;whiteSpace=wrap;rounded=0;fontStyle=2" vertex="1" parent="1">
          <mxGeometry x="-310" y="280" width="230" height="40" as="geometry" />
        </mxCell>
        <mxCell id="v6syZUUk10XVaUzBlse5-81" value="release/vX.X.Xb" style="text;html=1;align=right;verticalAlign=middle;whiteSpace=wrap;rounded=1;fontFamily=Consolas;fontSource=https%3A%2F%2Ffonts.googleapis.com%2Fcss%3Ffamily%3DConsolas;" vertex="1" parent="1">
          <mxGeometry x="-80" y="360" width="120" height="40" as="geometry" />
        </mxCell>
        <mxCell id="v6syZUUk10XVaUzBlse5-82" value="release snapshots" style="text;html=1;align=right;verticalAlign=middle;whiteSpace=wrap;rounded=0;fontStyle=2" vertex="1" parent="1">
          <mxGeometry x="-310" y="360" width="230" height="40" as="geometry" />
        </mxCell>
        <mxCell id="v6syZUUk10XVaUzBlse5-84" value="release/vY.Y.Yb" style="text;html=1;align=right;verticalAlign=middle;whiteSpace=wrap;rounded=1;fontFamily=Consolas;fontSource=https%3A%2F%2Ffonts.googleapis.com%2Fcss%3Ffamily%3DConsolas;" vertex="1" parent="1">
          <mxGeometry x="-80" y="400" width="120" height="40" as="geometry" />
        </mxCell>
        <mxCell id="v6syZUUk10XVaUzBlse5-91" style="edgeStyle=orthogonalEdgeStyle;rounded=1;orthogonalLoop=1;jettySize=auto;html=1;exitX=1;exitY=0.5;exitDx=0;exitDy=0;entryX=0;entryY=0.5;entryDx=0;entryDy=0;fillColor=#f5f5f5;strokeColor=#666666;" edge="1" parent="1" source="v6syZUUk10XVaUzBlse5-85" target="v6syZUUk10XVaUzBlse5-87">
          <mxGeometry relative="1" as="geometry" />
        </mxCell>
        <mxCell id="v6syZUUk10XVaUzBlse5-85" value="" style="ellipse;whiteSpace=wrap;html=1;aspect=fixed;fillColor=#f5f5f5;strokeColor=#666666;fontColor=#333333;rounded=1;" vertex="1" parent="1">
          <mxGeometry x="170" y="370" width="20" height="20" as="geometry" />
        </mxCell>
        <mxCell id="v6syZUUk10XVaUzBlse5-86" value="" style="ellipse;whiteSpace=wrap;html=1;aspect=fixed;fillColor=#f5f5f5;strokeColor=#666666;fontColor=#333333;rounded=1;" vertex="1" parent="1">
          <mxGeometry x="530" y="410" width="20" height="20" as="geometry" />
        </mxCell>
        <mxCell id="v6syZUUk10XVaUzBlse5-87" value="" style="ellipse;whiteSpace=wrap;html=1;aspect=fixed;fillColor=#f5f5f5;strokeColor=#666666;fontColor=#333333;rounded=1;" vertex="1" parent="1">
          <mxGeometry x="220" y="370" width="20" height="20" as="geometry" />
        </mxCell>
        <mxCell id="v6syZUUk10XVaUzBlse5-67" style="edgeStyle=orthogonalEdgeStyle;rounded=1;orthogonalLoop=1;jettySize=auto;html=1;exitX=1;exitY=0.5;exitDx=0;exitDy=0;entryX=0;entryY=0.5;entryDx=0;entryDy=0;fillColor=#a20025;strokeColor=#6F0000;" edge="1" parent="1" source="v6syZUUk10XVaUzBlse5-31" target="v6syZUUk10XVaUzBlse5-65">
          <mxGeometry relative="1" as="geometry">
            <Array as="points">
              <mxPoint x="200" y="300" />
              <mxPoint x="200" y="340" />
            </Array>
          </mxGeometry>
        </mxCell>
        <mxCell id="v6syZUUk10XVaUzBlse5-89" style="edgeStyle=orthogonalEdgeStyle;rounded=1;orthogonalLoop=1;jettySize=auto;html=1;exitX=1;exitY=0.5;exitDx=0;exitDy=0;entryX=0;entryY=0.5;entryDx=0;entryDy=0;fillColor=#a20025;strokeColor=#6F0000;" edge="1" parent="1" source="v6syZUUk10XVaUzBlse5-31" target="v6syZUUk10XVaUzBlse5-87">
          <mxGeometry relative="1" as="geometry">
            <Array as="points">
              <mxPoint x="200" y="300" />
              <mxPoint x="200" y="380" />
            </Array>
          </mxGeometry>
        </mxCell>
      </root>
    </mxGraphModel>
  </diagram>
</mxfile>
